<?xml version="1.0" encoding="UTF-8"?>
<svg version="1.1" xmlns="http://www.w3.org/2000/svg" width="100" height="100">
<path d="M0 0 C33 0 66 0 100 0 C100 33 100 66 100 100 C67 100 34 100 0 100 C0 67 0 34 0 0 Z " fill="#FEFEFE" transform="translate(0,0)"/>
<path d="M0 0 C1.04607422 -0.020625 2.09214844 -0.04125 3.16992188 -0.0625 C4.18248047 -0.06765625 5.19503906 -0.0728125 6.23828125 -0.078125 C7.62527222 -0.09214355 7.62527222 -0.09214355 9.0402832 -0.10644531 C14.44289929 0.62101199 17.77937927 4.08671994 21.515625 7.8125 C22.39734375 8.69164062 23.2790625 9.57078125 24.1875 10.4765625 C25.095 11.39179688 26.0025 12.30703125 26.9375 13.25 C27.86046875 14.16523438 28.7834375 15.08046875 29.734375 16.0234375 C30.6109375 16.90257813 31.4875 17.78171875 32.390625 18.6875 C33.19145508 19.49058594 33.99228516 20.29367188 34.81738281 21.12109375 C39.27536491 26.19597676 37.95163995 33.56364519 38 39.9375 C38.02900391 41.19240234 38.05800781 42.44730469 38.08789062 43.74023438 C38.13811127 51.07631194 37.73662424 56.05633959 33.6875 62.25 C29.05231468 66.60426499 24.13834095 66.4335709 18.07421875 66.48828125 C17.22704788 66.496353 16.37987701 66.50442474 15.5070343 66.51274109 C13.71410154 66.5265669 11.92114262 66.53729578 10.12817383 66.54516602 C7.39548494 66.56237103 4.66400874 66.60626849 1.93164062 66.65039062 C0.18750887 66.66051887 -1.55663314 66.66903456 -3.30078125 66.67578125 C-4.11347977 66.69328934 -4.92617828 66.71079742 -5.76350403 66.72883606 C-11.07269759 66.70868172 -14.2134711 65.92813816 -18.3125 62.25 C-22.53819979 56.62204807 -22.90538084 52.05986553 -22.84375 45.15234375 C-22.8475769 44.19985245 -22.85140381 43.24736115 -22.85534668 42.26600647 C-22.85805727 40.26155535 -22.8507561 38.25706833 -22.83398438 36.25268555 C-22.81253885 33.19304318 -22.8338274 30.13574241 -22.859375 27.07617188 C-22.85673204 25.12239068 -22.85160771 23.16861093 -22.84375 21.21484375 C-22.85184692 20.30532455 -22.85994385 19.39580536 -22.86828613 18.45872498 C-22.78645915 12.89138556 -22.036747 9.65739543 -18.3125 5.25 C-12.13788962 -0.18953771 -7.98845391 0.03894432 0 0 Z " fill="#F75C5C" transform="translate(42.3125,16.75)"/>
<path d="M0 0 C4.14017168 0.52320851 6.09489556 2.70784251 8.984375 5.5859375 C9.91894531 6.51664063 10.85351562 7.44734375 11.81640625 8.40625 C12.2973877 8.89351562 12.77836914 9.38078125 13.27392578 9.8828125 C14.74845093 11.37343402 16.2383355 12.84734065 17.73046875 14.3203125 C18.65988281 15.25359375 19.58929688 16.186875 20.546875 17.1484375 C21.40120117 18.00614746 22.25552734 18.86385742 23.13574219 19.74755859 C25 22 25 22 25 25 C21.58362047 25.11632513 18.16775103 25.18728897 14.75 25.25 C13.78191406 25.28351562 12.81382813 25.31703125 11.81640625 25.3515625 C4.88396516 25.44718238 4.88396516 25.44718238 1.34375 23.65625 C-0.84658889 19.32651033 -0.41510233 15.01891726 -0.25 10.25 C-0.23195312 9.26644531 -0.21390625 8.28289063 -0.1953125 7.26953125 C-0.14824126 4.84536217 -0.08250742 2.42317941 0 0 Z " fill="#FE918B" transform="translate(54,18)"/>
<path d="M0 0 C6.25925926 -0.48148148 6.25925926 -0.48148148 9.5 1.625 C11 4 11 4 11 7.0625 C10 10 10 10 8.3125 11.875 C6 13 6 13 0 13 C0 8.71 0 4.42 0 0 Z " fill="#FEF7F7" transform="translate(45,58)"/>
<path d="M0 0 C6.15234375 -0.09765625 6.15234375 -0.09765625 8 0 C9 1 9 1 9.0625 4.0625 C9.041875 5.031875 9.02125 6.00125 9 7 C6.69 7.33 4.38 7.66 2 8 C2 9.65 2 11.3 2 13 C1.34 13 0.68 13 0 13 C0 8.71 0 4.42 0 0 Z " fill="#FEF9F9" transform="translate(33,58)"/>
<path d="M0 0 C2.97 0 5.94 0 9 0 C9 0.66 9 1.32 9 2 C6.69 2 4.38 2 2 2 C2 2.99 2 3.98 2 5 C4.31 5 6.62 5 9 5 C9 5.99 9 6.98 9 8 C6.69 8 4.38 8 2 8 C2 9.65 2 11.3 2 13 C1.34 13 0.68 13 0 13 C0 8.71 0 4.42 0 0 Z " fill="#FEEDED" transform="translate(58,58)"/>
<path d="M0 0 C4.875 0.875 4.875 0.875 6 2 C6.25 4.4375 6.25 4.4375 6 7 C3 9 3 9 0 9 C0 6.03 0 3.06 0 0 Z " fill="#F76565" transform="translate(47,60)"/>
<path d="M0 0 C1.65 0 3.3 0 5 0 C4.67 1.32 4.34 2.64 4 4 C2.68 4 1.36 4 0 4 C0 2.68 0 1.36 0 0 Z " fill="#F87070" transform="translate(35,60)"/>
<path d="M0 0 C0.99 0.33 1.98 0.66 3 1 C3.33 2.98 3.66 4.96 4 7 C3.01 6.67 2.02 6.34 1 6 C-0.1875 3.4375 -0.1875 3.4375 -1 1 C-0.67 0.67 -0.34 0.34 0 0 Z " fill="#FDDADA" transform="translate(52,59)"/>
</svg>
